<?xml version="1.0" encoding="utf-8"?>
<!-- Generator: Adobe Illustrator 15.1.0, SVG Export Plug-In . SVG Version: 6.00 Build 0)  -->
<!DOCTYPE svg PUBLIC "-//W3C//DTD SVG 1.1//EN" "http://www.w3.org/Graphics/SVG/1.1/DTD/svg11.dtd">
<svg version="1.1" id="Layer_1" xmlns="http://www.w3.org/2000/svg" xmlns:xlink="http://www.w3.org/1999/xlink" x="0px" y="0px"
	 width="73.034px" height="67.416px" viewBox="0 0 73.034 67.416" enable-background="new 0 0 73.034 67.416" xml:space="preserve">
<path fill="none" stroke="#BFBFBF" stroke-linecap="round" stroke-linejoin="bevel" stroke-miterlimit="10" d="M17.515,28.054
	c-0.11,0.021-0.229-0.072-0.255-0.21l-1.02-5.485c-0.025-0.137,0.056-0.285,0.166-0.305l5.305-0.987
	c0.11-0.021,0.22,0.083,0.244,0.22L17.515,28.054z"/>
<path fill="none" stroke="#BFBFBF" stroke-linecap="round" stroke-linejoin="bevel" stroke-miterlimit="10" d="M21.646,46.968
	c-0.03,0.109-0.166,0.175-0.301,0.138l-5.379-1.48c-0.135-0.037-0.231-0.175-0.202-0.283l1.432-5.201
	c0.029-0.109,0.17-0.162,0.306-0.125L21.646,46.968z"/>
<path fill="none" stroke="#BFBFBF" stroke-linecap="round" stroke-linejoin="bevel" stroke-miterlimit="10" d="M16.75,38.146
	c-0.086,0.079-0.241,0.063-0.339-0.044l-3.916-4.24c-0.099-0.107-0.109-0.281-0.023-0.359l4.102-3.788
	c0.085-0.079,0.238-0.048,0.336,0.059L16.75,38.146z"/>
<path fill="none" stroke="#BFBFBF" stroke-linecap="round" stroke-linejoin="bevel" stroke-miterlimit="10" d="M48.843,44.862
	c0.117,0.012,0.207,0.139,0.193,0.283l-0.549,5.746c-0.014,0.145-0.136,0.268-0.252,0.257l-5.558-0.53
	c-0.116-0.012-0.194-0.146-0.181-0.289L48.843,44.862z"/>
<path fill="none" stroke="#BFBFBF" stroke-linecap="round" stroke-linejoin="bevel" stroke-miterlimit="10" d="M40.917,51.102
	c0.087,0.07,0.092,0.223,0.003,0.33l-3.536,4.314c-0.089,0.107-0.254,0.141-0.341,0.069l-4.174-3.42
	c-0.086-0.072-0.077-0.222,0.011-0.329L40.917,51.102z"/>
<path fill="none" stroke="#BFBFBF" stroke-linecap="round" stroke-linejoin="bevel" stroke-miterlimit="10" d="M31.096,51.772
	c0.041,0.108-0.031,0.246-0.166,0.299l-5.384,2.082c-0.135,0.053-0.301-0.002-0.343-0.111l-2.014-5.206
	c-0.042-0.108,0.043-0.239,0.178-0.292L31.096,51.772z"/>
<path fill="none" stroke="#BFBFBF" stroke-linecap="round" stroke-linejoin="bevel" stroke-miterlimit="10" d="M52.309,35.536
	c0.104-0.053,0.248,0.008,0.313,0.137l2.581,5.164c0.064,0.129,0.026,0.299-0.078,0.351l-1.513,1.125
	c-0.104,0.052-1.9-1.046-1.966-1.177L52.309,35.536z"/>
<path fill="none" stroke="#BFBFBF" stroke-linecap="round" stroke-linejoin="bevel" stroke-miterlimit="10" d="M50.377,25.568
	c0.063-0.093,0.213-0.111,0.329-0.033l4.616,3.132c0.116,0.079,0.164,0.24,0.1,0.333l-3.029,4.465
	c-0.063,0.093-0.213,0.098-0.328,0.019L50.377,25.568z"/>
<path fill="none" stroke="#BFBFBF" stroke-linecap="round" stroke-linejoin="bevel" stroke-miterlimit="10" d="M43.252,18.195
	c0-0.117,0.117-0.22,0.262-0.22l5.773,0.002c0.145,0,0.279,0.11,0.279,0.227l-0.002,5.583c0,0.117-0.126,0.208-0.271,0.208
	L43.252,18.195z"/>
<path fill="none" stroke="#BFBFBF" stroke-linecap="round" stroke-linejoin="bevel" stroke-miterlimit="10" d="M32.706,16.4
	c-0.066-0.091-0.034-0.238,0.079-0.321l4.507-3.288c0.113-0.083,0.281-0.074,0.347,0.018l3.182,4.358
	c0.066,0.091,0.02,0.234-0.094,0.316L32.706,16.4z"/>
<path fill="none" stroke="#BFBFBF" stroke-linecap="round" stroke-linejoin="bevel" stroke-miterlimit="10" d="M23.222,19.988
	c-0.107-0.046-0.155-0.195-0.097-0.328l2.298-5.295c0.059-0.133,0.213-0.212,0.32-0.166l5.12,2.222
	c0.107,0.047,0.141,0.199,0.084,0.332L23.222,19.988z"/>
<path fill="none" stroke="#BFBFBF" stroke-linecap="round" stroke-linejoin="bevel" stroke-miterlimit="10" d="M62.415,34.858
	c0.027-0.09,0.045-0.176,0.049-0.254c0.06-1.167-0.662-4.043-0.581-4.746c0.083-0.703-0.391-1.333-0.975-0.885
	c-1.238,0.951,0.229,2.779-0.23,2.918c-0.07,0.021-0.169,0.047-0.286,0.075c-0.378-0.947-1.026-3.132-1.212-3.734
	c-0.286-0.926-0.931-1.512-1.279-0.93c-0.269,0.446,0.902,3.494,1.461,4.889c-0.414,0.085-0.758,0.151-0.758,0.151
	c-0.459-0.428-0.923-2.304-1.151-2.835c-0.194-0.454-0.723-1.293-1.089-0.703c-0.419,0.671,0.809,2.8,1.394,4.066
	c-0.139,0.1-0.278,0.207-0.401,0.316c-0.574-0.854-1.344-2.222-1.782-2.045c-0.529,0.213,0.741,2.123,1.339,2.971
	c0.051,1.02,0.824,3.152,2.411,2.975c0.379-0.042,0.731-0.139,1.055-0.271c-0.08,0.705-0.152,1.541-0.213,2.537
	c-0.428,7.059-6.729,3.219-10.016,0.71c0.676-1.817,1.046-3.784,1.046-5.837c0-9.251-7.501-16.751-16.752-16.751
	c-9.252,0-16.751,7.5-16.751,16.751c0,9.252,7.499,16.752,16.751,16.752c5.284,0,9.996-2.447,13.066-6.27
	C64.865,54.593,62.75,36.639,62.415,34.858z"/>
<circle fill="none" stroke="#BFBFBF" stroke-linecap="round" stroke-linejoin="bevel" stroke-miterlimit="10" cx="25.236" cy="31.748" r="4.013"/>
<circle fill="none" stroke="#BFBFBF" stroke-linecap="round" stroke-linejoin="bevel" stroke-miterlimit="10" cx="41.784" cy="30.748" r="4.013"/>
<circle fill="none" stroke="#BFBFBF" stroke-linecap="round" stroke-linejoin="bevel" stroke-miterlimit="10" cx="25.147" cy="31.973" r="1.251"/>
<circle fill="none" stroke="#BFBFBF" stroke-linecap="round" stroke-linejoin="bevel" stroke-miterlimit="10" cx="42.017" cy="30.973" r="1.252"/>
<g>
	<path fill="none" stroke="#BFBFBF" stroke-linecap="round" stroke-linejoin="bevel" stroke-miterlimit="10" d="M43.47,37.673
		l-18.263,4.538c1.589,1.225,3.051,2.118,4.394,2.739c-0.034-0.101-0.053-0.204-0.053-0.31c0-1.173,2.209-2.124,4.933-2.124
		c2.456,0,4.492,0.773,4.867,1.786C42.374,41.821,43.47,37.673,43.47,37.673z"/>
	<path fill="none" stroke="#BFBFBF" stroke-linecap="round" stroke-linejoin="bevel" stroke-miterlimit="10" d="M34.481,42.517
		c-2.724,0-4.933,0.951-4.933,2.124c0,0.105,0.019,0.209,0.053,0.31c4.438,2.051,7.586,1.128,9.747-0.647
		C38.973,43.291,36.937,42.517,34.481,42.517z"/>
</g>
<circle fill="none" stroke="#BFBFBF" stroke-linecap="round" stroke-linejoin="bevel" stroke-miterlimit="10" cx="42.961" cy="30.153" r="0.456"/>
<circle fill="none" stroke="#BFBFBF" stroke-linecap="round" stroke-linejoin="bevel" stroke-miterlimit="10" cx="26.091" cy="31.153" r="0.455"/>
</svg>
